<svg width="24" height="24" viewBox="0 0 24 24" fill="none" xmlns="http://www.w3.org/2000/svg">
<path d="M21.456 10.154C21.579 10.813 21.646 11.502 21.646 12.221C21.646 17.845 17.882 21.844 12.197 21.844C10.9042 21.8444 9.62393 21.59 8.42943 21.0955C7.23492 20.6009 6.14957 19.8758 5.23539 18.9616C4.32121 18.0475 3.59612 16.9621 3.10155 15.7676C2.60699 14.5731 2.35263 13.2928 2.35303 12C2.35263 10.7072 2.60699 9.4269 3.10155 8.2324C3.59612 7.03789 4.32121 5.95254 5.23539 5.03836C6.14957 4.12418 7.23492 3.39909 8.42943 2.90453C9.62393 2.40996 10.9042 2.1556 12.197 2.156C14.855 2.156 17.076 3.134 18.78 4.722L16.005 7.497V7.49C14.972 6.506 13.661 6.001 12.197 6.001C8.94903 6.001 6.30903 8.745 6.30903 11.994C6.30903 15.242 8.94903 17.992 12.197 17.992C15.144 17.992 17.15 16.307 17.562 13.993H12.197V10.154H21.457H21.456Z" fill="#6AC7C9"/>
</svg>
