<svg width="25" height="25" viewBox="0 0 25 25" fill="none" xmlns="http://www.w3.org/2000/svg">
<g clip-path="url(#clip0_144_14)">
<path d="M12.5 9.89551C11.9113 9.8957 11.336 10.0486 10.8466 10.3349C10.3573 10.6212 9.97593 11.0281 9.75081 11.504C9.52569 11.9799 9.46691 12.5036 9.58188 13.0087C9.69686 13.5139 9.98044 13.9779 10.3968 14.342C10.8131 14.7061 11.3435 14.9541 11.9208 15.0545C12.4982 15.1549 13.0966 15.1033 13.6405 14.9061C14.1843 14.709 14.6491 14.3752 14.9761 13.9469C15.3031 13.5186 15.4777 13.0151 15.4777 12.5C15.4771 11.8092 15.1631 11.1469 14.6048 10.6586C14.0465 10.1702 13.2894 9.89577 12.5 9.89551V9.89551ZM19.4593 7.89355C19.3077 7.55754 19.0789 7.25235 18.787 6.99693C18.4951 6.7415 18.1463 6.54128 17.7623 6.40869C16.5904 6.00391 13.8002 6.09473 12.5 6.09473C11.1998 6.09473 8.41239 6.00049 7.23717 6.40869C6.85315 6.54128 6.50436 6.7415 6.21245 6.99693C5.92053 7.25235 5.69171 7.55754 5.54018 7.89355C5.07812 8.91895 5.18136 11.3628 5.18136 12.4995C5.18136 13.6362 5.07812 16.0771 5.54241 17.106C5.69394 17.442 5.92276 17.7472 6.21468 18.0026C6.5066 18.258 6.85538 18.4582 7.2394 18.5908C8.41127 18.9956 11.2015 18.9048 12.5022 18.9048C13.803 18.9048 16.5893 18.999 17.7645 18.5908C18.1485 18.4582 18.4973 18.258 18.7892 18.0026C19.0811 17.7472 19.31 17.442 19.4615 17.106C19.9275 16.0806 19.8203 13.6367 19.8203 12.5C19.8203 11.3633 19.9275 8.92285 19.4615 7.89404L19.4593 7.89355ZM12.5 16.5039C11.595 16.5039 10.7103 16.2691 9.95777 15.8291C9.20527 15.3892 8.61876 14.7638 8.27243 14.0322C7.92609 13.3006 7.83547 12.4956 8.01203 11.7189C8.18859 10.9422 8.6244 10.2288 9.26435 9.66881C9.90431 9.10885 10.7197 8.72752 11.6073 8.57303C12.4949 8.41854 13.415 8.49783 14.2511 8.80087C15.0873 9.10392 15.8019 9.61711 16.3047 10.2755C16.8075 10.934 17.0759 11.7081 17.0759 12.5C17.0766 13.026 16.9588 13.5469 16.7291 14.033C16.4994 14.5191 16.1623 14.9607 15.7373 15.3326C15.3122 15.7045 14.8075 15.9994 14.252 16.2004C13.6965 16.4014 13.1011 16.5045 12.5 16.5039V16.5039ZM17.2645 9.2627C17.0532 9.26279 16.8467 9.20806 16.671 9.10543C16.4952 9.0028 16.3583 8.85687 16.2773 8.68611C16.1964 8.51535 16.1752 8.32742 16.2163 8.1461C16.2575 7.96478 16.3592 7.79821 16.5085 7.66746C16.6579 7.53671 16.8482 7.44765 17.0554 7.41155C17.2626 7.37545 17.4774 7.39393 17.6726 7.46465C17.8678 7.53537 18.0346 7.65516 18.152 7.80886C18.2694 7.96256 18.332 8.14326 18.332 8.32812C18.3326 8.45089 18.3055 8.57254 18.2522 8.68611C18.199 8.79968 18.1206 8.90293 18.0216 8.98994C17.9227 9.07695 17.805 9.146 17.6755 9.19314C17.5459 9.24029 17.407 9.26459 17.2667 9.26465L17.2645 9.2627ZM22.3214 1.5625H2.67857C1.96817 1.5625 1.28686 1.80943 0.784535 2.24897C0.282206 2.68851 0 3.28465 0 3.90625L0 21.0938C0 21.7154 0.282206 22.3115 0.784535 22.751C1.28686 23.1906 1.96817 23.4375 2.67857 23.4375H22.3214C23.0318 23.4375 23.7131 23.1906 24.2155 22.751C24.7178 22.3115 25 21.7154 25 21.0938V3.90625C25 3.28465 24.7178 2.68851 24.2155 2.24897C23.7131 1.80943 23.0318 1.5625 22.3214 1.5625V1.5625ZM21.3661 15.7227C21.2941 16.9741 20.9676 18.083 19.9235 18.9941C18.8795 19.9053 17.6133 20.1968 16.1847 20.2563C14.7109 20.3291 10.2924 20.3291 8.81864 20.2563C7.38839 20.1934 6.12556 19.9072 5.0798 18.9941C4.03404 18.0811 3.70536 16.9717 3.63728 15.7227C3.55413 14.4326 3.55413 10.5659 3.63728 9.27734C3.70926 8.02588 4.03181 6.91699 5.0798 6.00586C6.12779 5.09473 7.39397 4.80664 8.81864 4.74707C10.2924 4.67432 14.7109 4.67432 16.1847 4.74707C17.615 4.81006 18.8817 5.09619 19.9235 6.00928C20.9654 6.92236 21.298 8.03174 21.3661 9.2832C21.4492 10.5684 21.4492 14.4316 21.3661 15.7227Z" fill="white"/>
</g>
<defs>
<clipPath id="clip0_144_14">
<rect width="25" height="25" fill="white"/>
</clipPath>
</defs>
</svg>
