<svg width="25" height="25" viewBox="0 0 25 25" fill="none" xmlns="http://www.w3.org/2000/svg">
<g clip-path="url(#clip0_144_12)">
<path d="M22.3214 1.5625H2.67857C1.96817 1.5625 1.28686 1.80943 0.784535 2.24897C0.282206 2.68851 0 3.28465 0 3.90625L0 21.0938C0 21.7154 0.282206 22.3115 0.784535 22.751C1.28686 23.1906 1.96817 23.4375 2.67857 23.4375H10.3376V16.0005H6.82199V12.5H10.3376V9.83203C10.3376 6.79736 12.4023 5.12109 15.5647 5.12109C17.0792 5.12109 18.6629 5.35742 18.6629 5.35742V8.33594H16.918C15.1987 8.33594 14.6624 9.26953 14.6624 10.2271V12.5H18.5006L17.8867 16.0005H14.6624V23.4375H22.3214C23.0318 23.4375 23.7131 23.1906 24.2155 22.751C24.7178 22.3115 25 21.7154 25 21.0938V3.90625C25 3.28465 24.7178 2.68851 24.2155 2.24897C23.7131 1.80943 23.0318 1.5625 22.3214 1.5625V1.5625Z" fill="white"/>
</g>
<defs>
<clipPath id="clip0_144_12">
<rect width="25" height="25" fill="white"/>
</clipPath>
</defs>
</svg>
