<svg width="25" height="25" viewBox="0 0 25 25" fill="none" xmlns="http://www.w3.org/2000/svg">
<path d="M12.5 5.99609C8.44308 5.99609 5.14509 8.88184 5.13951 12.4316C5.13951 13.6475 5.53013 14.834 6.26674 15.8545L6.43973 16.0986L5.69754 18.4717L8.48214 17.832L8.75 17.9736C9.87723 18.5596 11.1719 18.8721 12.4944 18.8721H12.5C16.5513 18.8721 19.9386 15.9863 19.9386 12.4365C19.9386 10.7178 19.0904 9.10156 17.7009 7.88574C16.3058 6.66504 14.4643 5.99609 12.5 5.99609ZM16.8248 15.1953C16.6406 15.6494 15.7589 16.0596 15.3348 16.1133C14.6317 16.2061 14.0848 16.1572 12.6842 15.6299C10.4688 14.79 9.01786 12.8369 8.90625 12.71C8.79464 12.583 8.00223 11.6602 8.00223 10.708C8.00223 9.75586 8.57143 9.28711 8.7779 9.0918C8.97879 8.89648 9.21875 8.84766 9.36942 8.84766C9.51451 8.84766 9.66518 8.84766 9.79353 8.85254C9.92746 8.85742 10.1116 8.80859 10.2902 9.18457C10.4743 9.57031 10.9152 10.5225 10.971 10.6201C11.0268 10.7178 11.0658 10.8301 10.9877 10.957C10.5636 11.6992 10.1116 11.6699 10.3404 12.0117C11.1942 13.2959 12.048 13.7402 13.3482 14.3115C13.5714 14.4092 13.6998 14.3945 13.8281 14.2627C13.9565 14.1357 14.3806 13.6963 14.5257 13.5059C14.6708 13.3105 14.8214 13.3447 15.0223 13.4082C15.2232 13.4717 16.3114 13.9404 16.5346 14.0381C16.7578 14.1357 16.9029 14.1846 16.9587 14.2627C17.0089 14.3555 17.0089 14.7461 16.8248 15.1953V15.1953ZM22.3214 1.5625H2.67857C1.19978 1.5625 0 2.6123 0 3.90625V21.0938C0 22.3877 1.19978 23.4375 2.67857 23.4375H22.3214C23.8002 23.4375 25 22.3877 25 21.0938V3.90625C25 2.6123 23.8002 1.5625 22.3214 1.5625ZM12.4944 20.1758C11.01 20.1758 9.55357 19.8486 8.26451 19.2334L3.57143 20.3125L4.82701 16.2988C4.05134 15.127 3.64397 13.7939 3.64397 12.4268C3.64955 8.15918 7.61719 4.6875 12.4944 4.6875C14.8605 4.6875 17.0815 5.49316 18.7556 6.95801C20.4241 8.42285 21.4286 10.3662 21.4286 12.4365C21.4286 16.7041 17.3717 20.1758 12.4944 20.1758Z" fill="white"/>
</svg>
